# xmcd
#
# Track frame offsets:
#	150
#	25126
#	44136
#	64017
#	84079
#	106364
#	124725
#	146095
#	161819
#	197337
#	218269
#	232176
#
# Disc length: 3367 seconds
#
# Revision: 1
# Processed by: cddbd v1.5.2PL0 Copyright (c) Steve Scherf et al.
# Submitted via: audiograbber 1.83.01
#
DISCID=a20d250c
DTITLE=The Killer Blues Band - Mighty River
DYEAR=1999
DGENRE=Blues
TTITLE0=The Mighty River
TTITLE1=Bluestone Lane
TTITLE2=Since I've Seen The Sun
TTITLE3=Hang My Head And Cry
TTITLE4=Don and Dewey
TTITLE5=Ring On Your Finger
TTITLE6=Soul 69
TTITLE7=Walter Shuffle
TTITLE8=Wicked Bad Feeling
TTITLE9=I'm So Lucky (for You, Geri)
TTITLE10=Groundscore
TTITLE11=Hard Cold Cash
EXTD=
EXTT0=
EXTT1=
EXTT2=
EXTT3=
EXTT4=
EXTT5=
EXTT6=
EXTT7=
EXTT8=
EXTT9=
EXTT10=
EXTT11=
PLAYORDER=
